<svg width="24" height="25" viewBox="0 0 24 25" fill="none" xmlns="http://www.w3.org/2000/svg">
<g clip-path="url(#clip0_1_135)">
<path fill-rule="evenodd" clip-rule="evenodd" d="M8.24997 -2.39111H19.5C19.6989 -2.39111 19.8896 -2.3121 20.0303 -2.17144C20.171 -2.03079 20.25 -1.84003 20.25 -1.64111V9.60889C20.25 9.8078 20.171 9.99856 20.0303 10.1392C19.8896 10.2799 19.6989 10.3589 19.5 10.3589C19.3011 10.3589 19.1103 10.2799 18.9696 10.1392C18.829 9.99856 18.75 9.8078 18.75 9.60889V0.168887L5.02997 13.8889C4.88779 14.0214 4.69975 14.0935 4.50545 14.0901C4.31114 14.0866 4.12576 14.0079 3.98835 13.8705C3.85093 13.7331 3.77222 13.5477 3.76879 13.3534C3.76537 13.1591 3.83749 12.9711 3.96997 12.8289L17.69 -0.891113H8.24997C8.05106 -0.891113 7.86029 -0.970131 7.71964 -1.11078C7.57899 -1.25144 7.49997 -1.4422 7.49997 -1.64111C7.49997 -1.84003 7.57899 -2.03079 7.71964 -2.17144C7.86029 -2.3121 8.05106 -2.39111 8.24997 -2.39111Z" fill="#079211"/>
</g>
<defs>
<clipPath id="clip0_1_135">
<rect width="24" height="24" fill="white" transform="translate(0 0.377991)"/>
</clipPath>
</defs>
</svg>
